<svg xmlns="http://www.w3.org/2000/svg" width="1440" height="560" preserveAspectRatio="none"><g mask="url(&quot;#SvgjsMask1088&quot;)" fill="none"><path fill="rgba(15, 23, 31, 1)" d="M0 0h1440v560H0z"/><path d="M523 128l-1 366" stroke-width="6" stroke="url(#SvgjsLinearGradient1089)" stroke-linecap="round" class="Down"/><path d="M1027 23l-1 410M297 315l-1 185" stroke-width="10" stroke="url(#SvgjsLinearGradient1090)" stroke-linecap="round" class="Up"/><path d="M1013 69l-1-187M369 399l-1 159M215 81l-1 222" stroke-width="10" stroke="url(#SvgjsLinearGradient1089)" stroke-linecap="round" class="Down"/><path d="M750 459l-1 165" stroke-width="8" stroke="url(#SvgjsLinearGradient1089)" stroke-linecap="round" class="Down"/><path d="M146 482l-1-285" stroke-width="6" stroke="url(#SvgjsLinearGradient1090)" stroke-linecap="round" class="Up"/><path d="M480 274l-1 319m865-548l-1 274" stroke-width="6" stroke="url(#SvgjsLinearGradient1089)" stroke-linecap="round" class="Down"/><path d="M576 559l-1 148" stroke-width="6" stroke="url(#SvgjsLinearGradient1090)" stroke-linecap="round" class="Up"/><path d="M628 484l-1 406m730-788l-1 171m-687-72L668 3" stroke-width="8" stroke="url(#SvgjsLinearGradient1089)" stroke-linecap="round" class="Down"/><path d="M295 255l-1-371" stroke-width="6" stroke="url(#SvgjsLinearGradient1090)" stroke-linecap="round" class="Up"/><path d="M1129 116l-1-360m29 761l-1-338" stroke-width="10" stroke="url(#SvgjsLinearGradient1089)" stroke-linecap="round" class="Down"/><path d="M1318 275l-1 296" stroke-width="8" stroke="url(#SvgjsLinearGradient1089)" stroke-linecap="round" class="Down"/><path d="M212 429l-1-349" stroke-width="10" stroke="url(#SvgjsLinearGradient1090)" stroke-linecap="round" class="Up"/><path d="M387 312l-1-142m137 260l-1 160" stroke-width="10" stroke="url(#SvgjsLinearGradient1089)" stroke-linecap="round" class="Down"/><path d="M442 3l-1-345" stroke-width="6" stroke="url(#SvgjsLinearGradient1089)" stroke-linecap="round" class="Down"/><path d="M1152 479l-1 177" stroke-width="10" stroke="url(#SvgjsLinearGradient1090)" stroke-linecap="round" class="Up"/><path d="M327 351l-1 235m900-95l-1 229" stroke-width="10" stroke="url(#SvgjsLinearGradient1089)" stroke-linecap="round" class="Down"/><path d="M940 387l-1-232" stroke-width="8" stroke="url(#SvgjsLinearGradient1090)" stroke-linecap="round" class="Up"/><path d="M805 258l-1-337" stroke-width="10" stroke="url(#SvgjsLinearGradient1089)" stroke-linecap="round" class="Down"/><path d="M1294 410l-1-306" stroke-width="6" stroke="url(#SvgjsLinearGradient1090)" stroke-linecap="round" class="Up"/><path d="M1043 75l-1 341" stroke-width="10" stroke="url(#SvgjsLinearGradient1089)" stroke-linecap="round" class="Down"/><path d="M23 187l-1 295" stroke-width="10" stroke="url(#SvgjsLinearGradient1090)" stroke-linecap="round" class="Up"/><path d="M83 100l-1-386" stroke-width="10" stroke="url(#SvgjsLinearGradient1089)" stroke-linecap="round" class="Down"/><path d="M477 369L476 5" stroke-width="6" stroke="url(#SvgjsLinearGradient1090)" stroke-linecap="round" class="Up"/><path d="M575 452l-1 292m169-220l-1 182" stroke-width="8" stroke="url(#SvgjsLinearGradient1089)" stroke-linecap="round" class="Down"/><path d="M758 182l-1-393" stroke-width="10" stroke="url(#SvgjsLinearGradient1090)" stroke-linecap="round" class="Up"/><path d="M776 493l-1 408" stroke-width="6" stroke="url(#SvgjsLinearGradient1090)" stroke-linecap="round" class="Up"/></g><defs><linearGradient x1="0%" y1="0%" x2="0%" y2="100%" id="SvgjsLinearGradient1089"><stop stop-color="rgba(40, 128, 217, 0)" offset="0"/><stop stop-color="rgba(40, 128, 217, 1)" offset="1"/></linearGradient><linearGradient x1="0%" y1="100%" x2="0%" y2="0%" id="SvgjsLinearGradient1090"><stop stop-color="rgba(40, 128, 217, 0)" offset="0"/><stop stop-color="rgba(40, 128, 217, 1)" offset="1"/></linearGradient><mask id="SvgjsMask1088"><path fill="#fff" d="M0 0h1440v560H0z"/></mask></defs></svg>