<svg xmlns="http://www.w3.org/2000/svg" version="1.1" xmlns:xlink="http://www.w3.org/1999/xlink" xmlns:svgjs="http://svgjs.com/svgjs" width="1440" height="560" preserveAspectRatio="none" viewBox="0 0 1440 560"><g mask="url(&quot;#SvgjsMask1088&quot;)" fill="none"><rect width="1440" height="560" x="0" y="0" fill="rgba(15, 23, 31, 1)"></rect><path d="M523 128L522 494" stroke-width="6" stroke="url(#SvgjsLinearGradient1089)" stroke-linecap="round" class="Down"></path><path d="M1027 23L1026 433" stroke-width="10" stroke="url(#SvgjsLinearGradient1090)" stroke-linecap="round" class="Up"></path><path d="M297 315L296 500" stroke-width="10" stroke="url(#SvgjsLinearGradient1090)" stroke-linecap="round" class="Up"></path><path d="M1013 69L1012 -118" stroke-width="10" stroke="url(#SvgjsLinearGradient1089)" stroke-linecap="round" class="Down"></path><path d="M369 399L368 558" stroke-width="10" stroke="url(#SvgjsLinearGradient1089)" stroke-linecap="round" class="Down"></path><path d="M215 81L214 303" stroke-width="10" stroke="url(#SvgjsLinearGradient1089)" stroke-linecap="round" class="Down"></path><path d="M750 459L749 624" stroke-width="8" stroke="url(#SvgjsLinearGradient1089)" stroke-linecap="round" class="Down"></path><path d="M146 482L145 197" stroke-width="6" stroke="url(#SvgjsLinearGradient1090)" stroke-linecap="round" class="Up"></path><path d="M480 274L479 593" stroke-width="6" stroke="url(#SvgjsLinearGradient1089)" stroke-linecap="round" class="Down"></path><path d="M1344 45L1343 319" stroke-width="6" stroke="url(#SvgjsLinearGradient1089)" stroke-linecap="round" class="Down"></path><path d="M576 559L575 707" stroke-width="6" stroke="url(#SvgjsLinearGradient1090)" stroke-linecap="round" class="Up"></path><path d="M628 484L627 890" stroke-width="8" stroke="url(#SvgjsLinearGradient1089)" stroke-linecap="round" class="Down"></path><path d="M1357 102L1356 273" stroke-width="8" stroke="url(#SvgjsLinearGradient1089)" stroke-linecap="round" class="Down"></path><path d="M669 201L668 3" stroke-width="8" stroke="url(#SvgjsLinearGradient1089)" stroke-linecap="round" class="Down"></path><path d="M295 255L294 -116" stroke-width="6" stroke="url(#SvgjsLinearGradient1090)" stroke-linecap="round" class="Up"></path><path d="M1129 116L1128 -244" stroke-width="10" stroke="url(#SvgjsLinearGradient1089)" stroke-linecap="round" class="Down"></path><path d="M1157 517L1156 179" stroke-width="10" stroke="url(#SvgjsLinearGradient1089)" stroke-linecap="round" class="Down"></path><path d="M1318 275L1317 571" stroke-width="8" stroke="url(#SvgjsLinearGradient1089)" stroke-linecap="round" class="Down"></path><path d="M212 429L211 80" stroke-width="10" stroke="url(#SvgjsLinearGradient1090)" stroke-linecap="round" class="Up"></path><path d="M387 312L386 170" stroke-width="10" stroke="url(#SvgjsLinearGradient1089)" stroke-linecap="round" class="Down"></path><path d="M523 430L522 590" stroke-width="10" stroke="url(#SvgjsLinearGradient1089)" stroke-linecap="round" class="Down"></path><path d="M442 3L441 -342" stroke-width="6" stroke="url(#SvgjsLinearGradient1089)" stroke-linecap="round" class="Down"></path><path d="M1152 479L1151 656" stroke-width="10" stroke="url(#SvgjsLinearGradient1090)" stroke-linecap="round" class="Up"></path><path d="M327 351L326 586" stroke-width="10" stroke="url(#SvgjsLinearGradient1089)" stroke-linecap="round" class="Down"></path><path d="M1226 491L1225 720" stroke-width="10" stroke="url(#SvgjsLinearGradient1089)" stroke-linecap="round" class="Down"></path><path d="M940 387L939 155" stroke-width="8" stroke="url(#SvgjsLinearGradient1090)" stroke-linecap="round" class="Up"></path><path d="M805 258L804 -79" stroke-width="10" stroke="url(#SvgjsLinearGradient1089)" stroke-linecap="round" class="Down"></path><path d="M1294 410L1293 104" stroke-width="6" stroke="url(#SvgjsLinearGradient1090)" stroke-linecap="round" class="Up"></path><path d="M1043 75L1042 416" stroke-width="10" stroke="url(#SvgjsLinearGradient1089)" stroke-linecap="round" class="Down"></path><path d="M23 187L22 482" stroke-width="10" stroke="url(#SvgjsLinearGradient1090)" stroke-linecap="round" class="Up"></path><path d="M83 100L82 -286" stroke-width="10" stroke="url(#SvgjsLinearGradient1089)" stroke-linecap="round" class="Down"></path><path d="M477 369L476 5" stroke-width="6" stroke="url(#SvgjsLinearGradient1090)" stroke-linecap="round" class="Up"></path><path d="M575 452L574 744" stroke-width="8" stroke="url(#SvgjsLinearGradient1089)" stroke-linecap="round" class="Down"></path><path d="M743 524L742 706" stroke-width="8" stroke="url(#SvgjsLinearGradient1089)" stroke-linecap="round" class="Down"></path><path d="M758 182L757 -211" stroke-width="10" stroke="url(#SvgjsLinearGradient1090)" stroke-linecap="round" class="Up"></path><path d="M776 493L775 901" stroke-width="6" stroke="url(#SvgjsLinearGradient1090)" stroke-linecap="round" class="Up"></path></g><defs><mask id="SvgjsMask1088"><rect width="1440" height="560" fill="#ffffff"></rect></mask><linearGradient x1="0%" y1="0%" x2="0%" y2="100%" id="SvgjsLinearGradient1089"><stop stop-color="rgba(40, 128, 217, 0)" offset="0"></stop><stop stop-color="rgba(40, 128, 217, 1)" offset="1"></stop></linearGradient><linearGradient x1="0%" y1="100%" x2="0%" y2="0%" id="SvgjsLinearGradient1090"><stop stop-color="rgba(40, 128, 217, 0)" offset="0"></stop><stop stop-color="rgba(40, 128, 217, 1)" offset="1"></stop></linearGradient></defs></svg>